<?xml version="1.0" encoding="utf-8"?>
<!-- Svg Vector Icons : http://www.onlinewebfonts.com/icon -->
<!DOCTYPE svg PUBLIC "-//W3C//DTD SVG 1.1//EN" "http://www.w3.org/Graphics/SVG/1.1/DTD/svg11.dtd">
<svg version="1.1" xmlns="http://www.w3.org/2000/svg" xmlns:xlink="http://www.w3.org/1999/xlink" x="0px" y="0px" viewBox="0 0 256 256" enable-background="new 0 0 256 256" xml:space="preserve">
<metadata> Svg Vector Icons : http://www.onlinewebfonts.com/icon </metadata>
<g><g><g><path fill="#000000" d="M158.9,31.3l-8.2,21.4l-20.4-10.4C119,36.6,109.7,32,109.6,32s4,9.4,9.1,20.8c5.1,11.5,9.2,21,9.2,21.1c0,0.1-9.8,3.4-21.6,7.3c-11.8,3.9-21.5,7.2-21.5,7.3s8.5,3.5,19,7.5c10.4,4,19.2,7.4,19.4,7.5c0.2,0.1-24.5,25.2-55,55.7c-42.5,42.5-55.6,56-56.4,57.6c-2.3,5-2.3,10.2,0.1,14.9c1.7,3.4,9.8,11.1,13.3,12.7c3.7,1.7,8.6,1.8,12.7,0.2c2.7-1,5-3.2,57.6-55.8c30.1-30.1,54.9-54.7,55-54.5c0.1,0.1,3,8.3,6.4,18.4c3.4,10,6.3,18.2,6.4,18.3c0.2,0.2,0.4-0.3,10.3-26.1c3.4-8.8,6.2-16.1,6.3-16.2s9.4,4.5,20.7,10.3c11.3,5.7,20.6,10.3,20.6,10.2s-4.2-9.5-9.2-20.9c-5-11.4-9.2-20.8-9.2-21c0-0.2,9.8-3.5,21.7-7.5c11.9-4,21.7-7.2,21.6-7.3c-0.1-0.1-9-3.5-19.7-7.7C215.5,80.7,206,77,205,76.6l-1.7-0.7l10.3-20.4c5.7-11.3,10.2-20.5,10.2-20.6c0,0-9.4,4.1-20.8,9.1c-11.3,5-20.8,9.2-21,9.2s-3.5-9.6-7.4-21.4c-3.8-11.7-7.1-21.5-7.3-21.7C167.2,10,163.4,19.5,158.9,31.3z M171.3,52.6c2.5,7.6,4.7,13.8,4.9,13.8s5.9-2.5,12.6-5.5c6.7-3,12.7-5.7,13.3-5.9c0.9-0.3,0,1.8-5.6,12.8c-3.7,7.3-6.6,13.3-6.5,13.4s6.1,2.5,13.4,5.2c7.3,2.8,13.4,5.1,13.6,5.3c0.2,0.1-5.8,2.3-13.2,4.7c-7.5,2.5-13.8,4.7-14,4.9c-0.2,0.2,2.3,6.3,5.5,13.5c3.2,7.2,5.8,13.2,5.8,13.3c-0.1,0.1-5.9-2.7-12.9-6.2c-7-3.5-13-6.4-13.2-6.4c-0.2,0-2.7,6-5.5,13.3c-2.8,7.4-5.2,13.5-5.4,13.7c-0.2,0.2-1.6-3.3-3.1-7.9l-2.7-8.3l8.6-8.7c10.4-10.5,11.2-11.8,11.2-18.5c0-5.9-0.9-7.6-6.9-13.8c-6.3-6.4-8.3-7.5-14.3-7.5c-6.6,0-8.1,0.9-17.7,10.4l-7.9,7.8l-9.1-3.4l-9.1-3.5l13.6-4.5c7.5-2.5,13.9-4.6,14.2-4.7c0.4-0.1-1.4-4.6-5.3-13.4c-3.3-7.2-5.9-13.3-5.9-13.4c0-0.2,5.8,2.6,13,6.2c7.2,3.6,13.1,6.4,13.3,6.3c0.2-0.1,1.8-4.3,3.8-9.3c6-15.7,6.8-17.9,7-17.7C166.7,38.7,168.8,45,171.3,52.6z M158.4,87.6c2.5,0.7,9.7,8.2,10.1,10.5c0.7,3.4-0.2,4.5-23.1,27.3l-21.5,21.5l-7.4-7.5l-7.5-7.4l21.5-21.5c20-20,23.5-23.3,25.7-23.3C156.5,87.1,157.5,87.4,158.4,87.6z M109.8,146.3l7.3,7.3l-39.9,39.9c-21.9,21.9-40.7,40.5-41.7,41.3c-2,1.5-4.7,1.8-6.6,0.8c-1.5-0.8-7.8-7-8.6-8.5c-0.8-1.5-0.9-3.6-0.2-5.4c0.4-1.1,81.4-82.7,82.1-82.7C102.4,139,105.8,142.3,109.8,146.3z"/><path fill="#000000" d="M198,184c-2.7,6.8-5.1,12.6-5.4,12.9c-0.3,0.3-6.1,2.7-12.9,5.4c-6.8,2.6-12.3,5-12.2,5.1c0.1,0.2,5.8,2.5,12.7,5.2l12.5,4.9l5.1,12.9c3.3,8.3,5.2,12.6,5.4,12.3c0.2-0.3,2.5-6.1,5.2-12.8l4.8-12.3l12.3-4.8c6.7-2.7,12.5-5,12.8-5.2c0.4-0.2-4-2.2-12.3-5.4l-12.9-5.1l-4.9-12.5c-2.7-6.9-5-12.6-5.2-12.7C203,171.7,200.7,177.2,198,184z M205,200.2l1.5,3.9l4,1.5c2.2,0.8,4,1.7,4,1.8c0,0.2-1.7,0.9-3.6,1.7c-2,0.8-3.9,1.6-4.2,1.9c-0.3,0.3-1.1,2.2-1.9,4.2c-0.8,2-1.5,3.7-1.7,3.7c-0.1,0-1-1.8-1.8-4l-1.5-4l-3.9-1.5c-2.1-0.8-4-1.7-4.2-1.8c-0.2-0.2,1.5-1,3.8-1.9l4.2-1.6l1.6-4.2c0.9-2.3,1.7-4,1.9-3.8C203.4,196.2,204.2,198.1,205,200.2z"/><path fill="#000000" d="M138.8,179.8l-2.2,5.9l-5.8,2.2c-3.2,1.2-5.9,2.4-5.9,2.5s2.6,1.3,5.9,2.5l5.8,2.2l2.2,5.9c1.3,3.2,2.4,5.7,2.6,5.5c0.1-0.2,1.2-2.8,2.4-5.7c1.1-2.9,2.3-5.5,2.5-5.7c0.3-0.2,2.9-1.3,5.8-2.5c2.9-1.1,5.3-2.2,5.3-2.3c0-0.1-2.4-1.2-5.3-2.3c-2.9-1.1-5.5-2.3-5.8-2.5c-0.3-0.2-1.4-2.8-2.5-5.7c-1.1-2.9-2.2-5.5-2.4-5.7C141.2,174.1,140.1,176.6,138.8,179.8z"/></g></g></g>
</svg>