<?xml version="1.0"?>
<svg xmlns="http://www.w3.org/2000/svg" version="1" viewBox="0 0 24 24" enable-background="new 0 0 24 24">
    <path d="M 12 2 C 10.2 2 8.9875 2.2875 8.6875 3.6875 C 8.6875 3.6875 7.9811789 7.8406021 8 13 L 7.90625 13 C 7.20625 13.1 7.0125 12.9125 6.8125 12.3125 C 6.8125 12.3125 6.3 9.6 6 8.5 C 5.8 7.6 5.50625 7 4.90625 7 C 4.20625 7.1 4 7.70625 4 8.90625 C 4.1 10.30625 4.3125 13 4.3125 13 C 4.4125 15.7 5.8 16.1 7.5 16 L 8.09375 15.9375 C 8.1858927 17.378939 8.3308833 18.859088 8.59375 20.3125 C 5.5419994 20.869435 4 22 4 22 L 20 22 C 20 22 18.399551 20.827473 15.25 20.28125 C 16.791177 12.454857 15.09375 3.6875 15.09375 3.6875 C 14.69375 2.0875 13.7 2 12 2 z M 18.875 5 C 18.365039 5.1175781 18.175 5.9 18 6.6875 C 17.8 7.4875 17.40625 9.1875 17.40625 9.1875 C 17.30625 9.4875 17.19375 9.6125 17.09375 9.8125 C 17.19375 10.8125 17.1875 11.9 17.1875 13 C 18.4875 13 19.60625 12.3 19.90625 10 C 19.90625 9 20 7.80625 20 6.40625 C 20 5.50625 19.79375 5.1 19.09375 5 C 19.00625 4.9875 18.947852 4.9832031 18.875 5 z"/>
</svg>
